<svg width="32" height="33" viewBox="0 0 32 33" fill="none" xmlns="http://www.w3.org/2000/svg">
<circle cx="16" cy="16.4404" r="16" fill="#ECE5E5"/>
<rect x="9.80273" y="7.48828" width="10.9934" height="16.8229" fill="#DF2127"/>
<path d="M22.3032 5.93386L7.83879 5.93359C7.42395 5.93359 7.42383 6.26902 7.42383 6.68386V23.9339C7.42383 24.3487 7.42365 24.6839 7.8385 24.6839H22.3032C22.7181 24.6839 23.0532 24.3487 23.0532 23.9339V6.68386C23.0532 6.26902 22.7181 5.93386 22.3032 5.93386ZM20.1376 11.4065H18.64C17.4657 11.4065 17.2384 11.9643 17.2384 12.7846V14.5917H20.0415L19.6759 17.4206H17.2384V24.6839H14.3157V17.4229H11.8712V14.5917H14.3157V12.5057C14.3157 10.0846 15.7947 8.76511 17.9556 8.76511C18.9915 8.76511 19.8798 8.84246 20.14 8.87761V11.4065H20.1376Z" fill="#ECE5E5"/>
</svg>
