<svg width="32" height="33" viewBox="0 0 32 33" fill="none" xmlns="http://www.w3.org/2000/svg">
<circle cx="16" cy="16.4404" r="16" fill="#ECE5E5"/>
<path d="M23.6207 12.6077C23.5302 12.2705 23.3526 11.9629 23.1059 11.7159C22.8591 11.4688 22.5518 11.2909 22.2147 11.1999C20.9739 10.8662 15.9998 10.8662 15.9998 10.8662C15.9998 10.8662 11.0257 10.8662 9.7848 11.1982C9.44754 11.2888 9.14009 11.4667 8.8933 11.7138C8.64651 11.9609 8.46909 12.2685 8.37884 12.6059C8.04687 13.8485 8.04688 16.4403 8.04688 16.4403C8.04688 16.4403 8.04687 19.0321 8.37884 20.273C8.56168 20.9582 9.10134 21.4979 9.7848 21.6807C11.0257 22.0145 15.9998 22.0145 15.9998 22.0145C15.9998 22.0145 20.9739 22.0145 22.2147 21.6807C22.9 21.4979 23.4379 20.9582 23.6207 20.273C23.9527 19.0321 23.9527 16.4403 23.9527 16.4403C23.9527 16.4403 23.9527 13.8485 23.6207 12.6077ZM14.4198 18.8191V14.0616L18.5383 16.4226L14.4198 18.8191Z" fill="#DF2127"/>
</svg>
