<svg width="32" height="33" viewBox="0 0 32 33" fill="none" xmlns="http://www.w3.org/2000/svg">
<circle cx="16" cy="16.4404" r="16" fill="#ECE5E5"/>
<path d="M8.16349 18.6989C9.16472 18.6989 10.1063 18.6923 11.0413 18.6989C11.5651 18.7054 11.8502 18.9208 11.9033 19.3323C11.963 19.8482 11.6579 20.1943 11.0877 20.2008C10.0135 20.2139 8.94586 20.2074 7.87172 20.2074C7.56004 20.2074 7.25508 20.2205 6.9434 20.2008C6.55881 20.1813 6.18082 20.1029 5.99518 19.711C5.80954 19.3192 5.94217 18.9666 6.19413 18.6466C7.21526 17.3667 8.243 16.0802 9.27085 14.8002C9.33045 14.7218 9.39017 14.6435 9.44989 14.5716C9.38357 14.4606 9.29075 14.5128 9.21113 14.5064C8.49507 14.4999 7.7723 14.5064 7.05613 14.4999C6.89039 14.4999 6.72454 14.4802 6.56541 14.4476C6.18753 14.3627 5.95537 13.9904 6.04159 13.6247C6.10131 13.3766 6.30026 13.1742 6.55221 13.1154C6.71135 13.0762 6.87708 13.0566 7.04282 13.0566C8.22321 13.0501 9.41008 13.0501 10.5903 13.0566C10.8026 13.0501 11.0082 13.0762 11.2137 13.1285C11.6646 13.2787 11.8568 13.6901 11.6778 14.1211C11.5187 14.4933 11.2667 14.8133 11.0148 15.1333C10.1462 16.2239 9.27744 17.3079 8.40885 18.3854C8.33593 18.4703 8.26962 18.5551 8.16349 18.6989Z" fill="#DF2127"/>
<path d="M15.855 15.2625C16.0141 15.0601 16.1798 14.8707 16.4517 14.8184C16.9755 14.7139 17.4662 15.047 17.4728 15.5695C17.4927 16.8755 17.4861 18.1816 17.4728 19.4877C17.4728 19.8273 17.2474 20.1277 16.9225 20.2256C16.5909 20.3497 16.2129 20.2518 15.9942 19.9709C15.8815 19.8338 15.8351 19.8077 15.6759 19.9318C15.0725 20.4151 14.3895 20.4999 13.6534 20.2649C12.4732 19.8861 11.9892 18.9783 11.8565 17.8747C11.7173 16.6796 12.1218 15.6609 13.2093 15.0339C14.1109 14.505 15.0261 14.5507 15.855 15.2625ZM13.5076 17.6461C13.5208 17.9335 13.6136 18.2078 13.7861 18.4363C14.1442 18.9065 14.8271 19.0044 15.3112 18.6518C15.3908 18.593 15.4637 18.5212 15.53 18.4363C15.9014 17.94 15.9014 17.1237 15.53 16.6274C15.3443 16.3727 15.0526 16.2224 14.7409 16.216C14.0115 16.1702 13.501 16.7253 13.5076 17.6461ZM20.4501 17.6853C20.397 16.0069 21.5177 14.7531 23.109 14.7074C24.7999 14.6552 26.0333 15.7719 26.0863 17.4045C26.1394 19.0566 25.1116 20.2256 23.5268 20.3823C21.7961 20.5522 20.4236 19.318 20.4501 17.6853ZM22.1144 17.5286C22.1012 17.8551 22.2006 18.1751 22.3996 18.4428C22.7643 18.913 23.4472 19.0044 23.9247 18.6387C23.9977 18.5866 24.0573 18.5212 24.117 18.4559C24.5016 17.9595 24.5016 17.1237 24.1236 16.6274C23.9379 16.3792 23.6462 16.2224 23.3345 16.216C22.6184 16.1767 22.1144 16.7123 22.1144 17.5286ZM19.8666 16.3857C19.8666 17.398 19.8732 18.4102 19.8666 19.4223C19.8732 19.8861 19.5019 20.2713 19.0311 20.2844C18.9516 20.2844 18.8654 20.2779 18.7857 20.2583C18.4543 20.1734 18.2022 19.8273 18.2022 19.4159V14.2241C18.2022 13.9172 18.1956 13.6168 18.2022 13.3099C18.2089 12.807 18.5338 12.4806 19.0245 12.4806C19.5284 12.474 19.8666 12.8006 19.8666 13.323C19.8732 14.3417 19.8666 15.367 19.8666 16.3857Z" fill="#DF2127"/>
</svg>
