<svg width="88" height="16" viewBox="0 0 88 16" fill="none" xmlns="http://www.w3.org/2000/svg">
<path d="M8.00742 2.97461L6.53242 5.96367L3.23242 6.44336L5.61992 8.77148L5.05586 12.0574L8.00742 10.5059L10.959 12.0559L10.3949 8.76992L12.7824 6.44336L9.48242 5.96367L8.00742 2.97461Z" fill="white"/>
<path d="M14.1965 5.51251L10.2294 4.93594L8.45591 1.34063C8.40748 1.24219 8.32779 1.16251 8.22935 1.11407C7.98248 0.992193 7.68248 1.09376 7.55904 1.34063L5.7856 4.93594L1.81841 5.51251C1.70904 5.52813 1.60904 5.57969 1.53248 5.65782C1.43992 5.75295 1.38891 5.88094 1.39067 6.01366C1.39243 6.14639 1.4468 6.27298 1.54185 6.36563L4.41216 9.16407L3.73404 13.1156C3.71814 13.2076 3.72831 13.3021 3.7634 13.3885C3.79849 13.475 3.8571 13.5498 3.93258 13.6047C4.00806 13.6595 4.09739 13.692 4.19044 13.6987C4.28349 13.7053 4.37654 13.6857 4.45904 13.6422L8.00748 11.7766L11.5559 13.6422C11.6528 13.6938 11.7653 13.7109 11.8731 13.6922C12.145 13.6453 12.3278 13.3875 12.2809 13.1156L11.6028 9.16407L14.4731 6.36563C14.5512 6.28907 14.6028 6.18907 14.6184 6.07969C14.6606 5.80626 14.47 5.55313 14.1965 5.51251ZM10.395 8.77032L10.959 12.0563L8.00748 10.5063L5.05591 12.0578L5.61998 8.77188L3.23248 6.44376L6.53248 5.96407L8.00748 2.97501L9.48248 5.96407L12.7825 6.44376L10.395 8.77032Z" fill="url(#paint0_linear_330_3903)"/>
<path d="M26.0074 2.97461L24.5324 5.96367L21.2324 6.44336L23.6199 8.77148L23.0559 12.0574L26.0074 10.5059L28.959 12.0559L28.3949 8.76992L30.7824 6.44336L27.4824 5.96367L26.0074 2.97461Z" fill="white"/>
<path d="M32.1965 5.51251L28.2294 4.93594L26.4559 1.34063C26.4075 1.24219 26.3278 1.16251 26.2294 1.11407C25.9825 0.992193 25.6825 1.09376 25.559 1.34063L23.7856 4.93594L19.8184 5.51251C19.709 5.52813 19.609 5.57969 19.5325 5.65782C19.4399 5.75295 19.3889 5.88094 19.3907 6.01366C19.3924 6.14639 19.4468 6.27298 19.5419 6.36563L22.4122 9.16407L21.734 13.1156C21.7181 13.2076 21.7283 13.3021 21.7634 13.3885C21.7985 13.475 21.8571 13.5498 21.9326 13.6047C22.0081 13.6595 22.0974 13.692 22.1904 13.6987C22.2835 13.7053 22.3765 13.6857 22.459 13.6422L26.0075 11.7766L29.5559 13.6422C29.6528 13.6938 29.7653 13.7109 29.8731 13.6922C30.145 13.6453 30.3278 13.3875 30.2809 13.1156L29.6028 9.16407L32.4731 6.36563C32.5512 6.28907 32.6028 6.18907 32.6184 6.07969C32.6606 5.80626 32.47 5.55313 32.1965 5.51251ZM28.395 8.77032L28.959 12.0563L26.0075 10.5063L23.0559 12.0578L23.62 8.77188L21.2325 6.44376L24.5325 5.96407L26.0075 2.97501L27.4825 5.96407L30.7825 6.44376L28.395 8.77032Z" fill="url(#paint1_linear_330_3903)"/>
<path d="M44.0074 2.97461L42.5324 5.96367L39.2324 6.44336L41.6199 8.77148L41.0559 12.0574L44.0074 10.5059L46.959 12.0559L46.3949 8.76992L48.7824 6.44336L45.4824 5.96367L44.0074 2.97461Z" fill="white"/>
<path d="M50.1965 5.51251L46.2294 4.93594L44.4559 1.34063C44.4075 1.24219 44.3278 1.16251 44.2294 1.11407C43.9825 0.992193 43.6825 1.09376 43.559 1.34063L41.7856 4.93594L37.8184 5.51251C37.709 5.52813 37.609 5.57969 37.5325 5.65782C37.4399 5.75295 37.3889 5.88094 37.3907 6.01366C37.3924 6.14639 37.4468 6.27298 37.5419 6.36563L40.4122 9.16407L39.734 13.1156C39.7181 13.2076 39.7283 13.3021 39.7634 13.3885C39.7985 13.475 39.8571 13.5498 39.9326 13.6047C40.0081 13.6595 40.0974 13.692 40.1904 13.6987C40.2835 13.7053 40.3765 13.6857 40.459 13.6422L44.0075 11.7766L47.5559 13.6422C47.6528 13.6938 47.7653 13.7109 47.8731 13.6922C48.145 13.6453 48.3278 13.3875 48.2809 13.1156L47.6028 9.16407L50.4731 6.36563C50.5512 6.28907 50.6028 6.18907 50.6184 6.07969C50.6606 5.80626 50.47 5.55313 50.1965 5.51251ZM46.395 8.77032L46.959 12.0563L44.0075 10.5063L41.0559 12.0578L41.62 8.77188L39.2325 6.44376L42.5325 5.96407L44.0075 2.97501L45.4825 5.96407L48.7825 6.44376L46.395 8.77032Z" fill="url(#paint2_linear_330_3903)"/>
<path d="M62.0074 2.97461L60.5324 5.96367L57.2324 6.44336L59.6199 8.77148L59.0559 12.0574L62.0074 10.5059L64.959 12.0559L64.3949 8.76992L66.7824 6.44336L63.4824 5.96367L62.0074 2.97461Z" fill="white"/>
<path d="M68.1965 5.51251L64.2294 4.93594L62.4559 1.34063C62.4075 1.24219 62.3278 1.16251 62.2294 1.11407C61.9825 0.992193 61.6825 1.09376 61.559 1.34063L59.7856 4.93594L55.8184 5.51251C55.709 5.52813 55.609 5.57969 55.5325 5.65782C55.4399 5.75295 55.3889 5.88094 55.3907 6.01366C55.3924 6.14639 55.4468 6.27298 55.5419 6.36563L58.4122 9.16407L57.734 13.1156C57.7181 13.2076 57.7283 13.3021 57.7634 13.3885C57.7985 13.475 57.8571 13.5498 57.9326 13.6047C58.0081 13.6595 58.0974 13.692 58.1904 13.6987C58.2835 13.7053 58.3765 13.6857 58.459 13.6422L62.0075 11.7766L65.5559 13.6422C65.6528 13.6938 65.7653 13.7109 65.8731 13.6922C66.145 13.6453 66.3278 13.3875 66.2809 13.1156L65.6028 9.16407L68.4731 6.36563C68.5512 6.28907 68.6028 6.18907 68.6184 6.07969C68.6606 5.80626 68.47 5.55313 68.1965 5.51251ZM64.395 8.77032L64.959 12.0563L62.0075 10.5063L59.0559 12.0578L59.62 8.77188L57.2325 6.44376L60.5325 5.96407L62.0075 2.97501L63.4825 5.96407L66.7825 6.44376L64.395 8.77032Z" fill="url(#paint3_linear_330_3903)"/>
<path d="M80.0074 2.97461L78.5324 5.96367L75.2324 6.44336L77.6199 8.77148L77.0559 12.0574L80.0074 10.5059L82.959 12.0559L82.3949 8.76992L84.7824 6.44336L81.4824 5.96367L80.0074 2.97461Z" fill="white"/>
<path d="M86.1965 5.51251L82.2294 4.93594L80.4559 1.34063C80.4075 1.24219 80.3278 1.16251 80.2294 1.11407C79.9825 0.992193 79.6825 1.09376 79.559 1.34063L77.7856 4.93594L73.8184 5.51251C73.709 5.52813 73.609 5.57969 73.5325 5.65782C73.4399 5.75295 73.3889 5.88094 73.3907 6.01366C73.3924 6.14639 73.4468 6.27298 73.5419 6.36563L76.4122 9.16407L75.734 13.1156C75.7181 13.2076 75.7283 13.3021 75.7634 13.3885C75.7985 13.475 75.8571 13.5498 75.9326 13.6047C76.0081 13.6595 76.0974 13.692 76.1904 13.6987C76.2835 13.7053 76.3765 13.6857 76.459 13.6422L80.0075 11.7766L83.5559 13.6422C83.6528 13.6938 83.7653 13.7109 83.8731 13.6922C84.145 13.6453 84.3278 13.3875 84.2809 13.1156L83.6028 9.16407L86.4731 6.36563C86.5512 6.28907 86.6028 6.18907 86.6184 6.07969C86.6606 5.80626 86.47 5.55313 86.1965 5.51251ZM82.395 8.77032L82.959 12.0563L80.0075 10.5063L77.0559 12.0578L77.62 8.77188L75.2325 6.44376L78.5325 5.96407L80.0075 2.97501L81.4825 5.96407L84.7825 6.44376L82.395 8.77032Z" fill="url(#paint4_linear_330_3903)"/>
<defs>
<linearGradient id="paint0_linear_330_3903" x1="8.00744" y1="-3.32947" x2="8.00744" y2="13.6999" gradientUnits="userSpaceOnUse">
<stop stop-color="#E32424"/>
<stop offset="1" stop-color="#FFB800"/>
</linearGradient>
<linearGradient id="paint1_linear_330_3903" x1="26.0074" y1="-3.32947" x2="26.0074" y2="13.6999" gradientUnits="userSpaceOnUse">
<stop stop-color="#E32424"/>
<stop offset="1" stop-color="#FFB800"/>
</linearGradient>
<linearGradient id="paint2_linear_330_3903" x1="44.0074" y1="-3.32947" x2="44.0074" y2="13.6999" gradientUnits="userSpaceOnUse">
<stop stop-color="#E32424"/>
<stop offset="1" stop-color="#FFB800"/>
</linearGradient>
<linearGradient id="paint3_linear_330_3903" x1="62.0074" y1="-3.32947" x2="62.0074" y2="13.6999" gradientUnits="userSpaceOnUse">
<stop stop-color="#E32424"/>
<stop offset="1" stop-color="#FFB800"/>
</linearGradient>
<linearGradient id="paint4_linear_330_3903" x1="80.0074" y1="-3.32947" x2="80.0074" y2="13.6999" gradientUnits="userSpaceOnUse">
<stop stop-color="#E32424"/>
<stop offset="1" stop-color="#FFB800"/>
</linearGradient>
</defs>
</svg>
