<svg width="14" height="12" viewBox="0 0 14 12" fill="none" xmlns="http://www.w3.org/2000/svg">
<path d="M1 6.88013C0.585786 6.88013 0.25 6.54434 0.25 6.13013C0.25 5.71591 0.585786 5.38013 1 5.38013L1 6.88013ZM13.5303 5.5998C13.8232 5.89269 13.8232 6.36756 13.5303 6.66046L8.75736 11.4334C8.46447 11.7263 7.98959 11.7263 7.6967 11.4334C7.40381 11.1405 7.40381 10.6657 7.6967 10.3728L11.9393 6.13013L7.6967 1.88749C7.40381 1.59459 7.40381 1.11972 7.6967 0.826826C7.98959 0.533932 8.46447 0.533932 8.75736 0.826825L13.5303 5.5998ZM1 5.38013L7.63158 5.38013L7.63158 6.88013L1 6.88013L1 5.38013ZM7.63158 5.38013L13 5.38013L13 6.88013L7.63158 6.88013L7.63158 5.38013Z" fill="white"/>
</svg>
