<svg width="42" height="49" viewBox="0 0 42 49" fill="none" xmlns="http://www.w3.org/2000/svg">
<path d="M39.8916 10.0107C39.8916 42.3492 21.1373 47 21.1373 47C21.1373 47 2.38379 42.3492 2.38379 10.0107C8.63523 9.50718 14.7567 8.80206 21.1381 3C27.5186 8.8029 33.6401 9.50802 39.8916 10.0107Z" fill="white" stroke="#DF2127" stroke-width="3" stroke-miterlimit="10"/>
<path d="M16.2843 23.1365C15.6985 22.5507 14.7488 22.5507 14.163 23.1365C13.5772 23.7223 13.5772 24.672 14.163 25.2578L16.2843 23.1365ZM30.5473 21.2527C31.0908 20.6275 31.0246 19.68 30.3994 19.1365C29.7742 18.593 28.8267 18.6592 28.2832 19.2844L30.5473 21.2527ZM17.6154 26.589L16.5548 27.6496L16.5548 27.6496L17.6154 26.589ZM20.6968 29.6703L19.6361 30.731L20.6968 29.6703ZM22.391 30.6348L30.5473 21.2527L28.2832 19.2844L20.127 28.6666L22.391 30.6348ZM14.163 25.2578L16.5548 27.6496L18.6761 25.5283L16.2843 23.1365L14.163 25.2578ZM16.5548 27.6496L19.6361 30.731L21.7574 28.6097L18.6761 25.5283L16.5548 27.6496ZM20.127 28.6666C20.5512 28.1786 21.3002 28.1524 21.7574 28.6097L19.6361 30.731C20.4087 31.5035 21.6742 31.4594 22.391 30.6348L20.127 28.6666Z" fill="#DF2127"/>
</svg>
