<svg width="44" height="44" viewBox="0 0 44 44" fill="none" xmlns="http://www.w3.org/2000/svg">
<path d="M39.6888 23.1543C39.6888 33.2687 32.0385 40.3197 21.8808 40.3197C18.1284 40.3197 14.6354 39.2002 11.7287 37.2732L17.9774 33.6784L8.35237 28.1394L3.84701 25.5429L3.01855 25.0697V42.287L8.23088 39.2871C11.9895 42.2412 16.7268 44.0007 21.8808 44.0007C34.077 44.0007 43.3836 35.3059 43.3836 23.1543H39.6888Z" fill="#DF2127"/>
<path d="M4.07854 20.8464C4.07854 10.7319 11.7289 3.68718 21.881 3.68718C25.1647 3.68718 28.2513 4.54675 30.9213 6.05253L26.4798 8.60867L39.0933 15.8613L39.2381 15.9482L41.4386 17.2119V0L34.535 3.9696C30.9501 1.47159 26.5896 0 21.881 0C9.69034 0 0.383789 8.69483 0.383789 20.8464V20.8519H4.07854V20.8464Z" fill="#DF2127"/>
</svg>
