<svg width="62" height="47" viewBox="0 0 62 47" fill="none" xmlns="http://www.w3.org/2000/svg">
<path d="M57.5664 38.5962C57.5664 39.6073 57.1647 40.577 56.4497 41.292C55.7348 42.007 54.765 42.4087 53.7539 42.4087H8.00391C6.99277 42.4087 6.02304 42.007 5.30806 41.292C4.59308 40.577 4.19141 39.6073 4.19141 38.5962V15.7212C4.19141 14.71 4.59308 13.7403 5.30806 13.0253C6.02304 12.3103 6.99277 11.9087 8.00391 11.9087H12.4722C15.504 11.907 18.4111 10.7016 20.5547 8.55747L23.719 5.40072C24.432 4.68756 25.3984 4.2859 26.4068 4.28366H35.3433C36.3544 4.28388 37.324 4.68569 38.0388 5.40072L41.1955 8.55747C42.2578 9.62007 43.519 10.463 44.9072 11.038C46.2953 11.613 47.7831 11.9088 49.2857 11.9087H53.7539C54.765 11.9087 55.7348 12.3103 56.4497 13.0253C57.1647 13.7403 57.5664 14.71 57.5664 15.7212V38.5962ZM8.00391 8.09616C5.98163 8.09616 4.04218 8.89951 2.61222 10.3295C1.18225 11.7594 0.378906 13.6989 0.378906 15.7212L0.378906 38.5962C0.378906 40.6184 1.18225 42.5579 2.61222 43.9879C4.04218 45.4178 5.98163 46.2212 8.00391 46.2212H53.7539C55.7762 46.2212 57.7156 45.4178 59.1456 43.9879C60.5756 42.5579 61.3789 40.6184 61.3789 38.5962V15.7212C61.3789 13.6989 60.5756 11.7594 59.1456 10.3295C57.7156 8.89951 55.7762 8.09616 53.7539 8.09616H49.2857C47.2635 8.09573 45.3244 7.2921 43.8948 5.86204L40.738 2.70529C39.3084 1.27522 37.3693 0.471593 35.3472 0.471161H26.4107C24.3885 0.471593 22.4494 1.27522 21.0198 2.70529L17.863 5.86204C16.4334 7.2921 14.4943 8.09573 12.4722 8.09616H8.00391Z" fill="#B28C8C"/>
<path d="M30.8789 34.7837C28.3511 34.7837 25.9268 33.7795 24.1393 31.992C22.3518 30.2046 21.3477 27.7803 21.3477 25.2524C21.3477 22.7246 22.3518 20.3003 24.1393 18.5128C25.9268 16.7253 28.3511 15.7212 30.8789 15.7212C33.4068 15.7212 35.8311 16.7253 37.6185 18.5128C39.406 20.3003 40.4102 22.7246 40.4102 25.2524C40.4102 27.7803 39.406 30.2046 37.6185 31.992C35.8311 33.7795 33.4068 34.7837 30.8789 34.7837ZM30.8789 38.5962C34.4179 38.5962 37.8119 37.1903 40.3144 34.6879C42.8168 32.1854 44.2227 28.7914 44.2227 25.2524C44.2227 21.7134 42.8168 18.3194 40.3144 15.817C37.8119 13.3145 34.4179 11.9087 30.8789 11.9087C27.3399 11.9087 23.9459 13.3145 21.4435 15.817C18.941 18.3194 17.5352 21.7134 17.5352 25.2524C17.5352 28.7914 18.941 32.1854 21.4435 34.6879C23.9459 37.1903 27.3399 38.5962 30.8789 38.5962ZM11.8164 17.6274C11.8164 18.133 11.6156 18.6178 11.2581 18.9753C10.9006 19.3328 10.4157 19.5337 9.91016 19.5337C9.40459 19.5337 8.91973 19.3328 8.56223 18.9753C8.20474 18.6178 8.00391 18.133 8.00391 17.6274C8.00391 17.1218 8.20474 16.637 8.56223 16.2795C8.91973 15.922 9.40459 15.7212 9.91016 15.7212C10.4157 15.7212 10.9006 15.922 11.2581 16.2795C11.6156 16.637 11.8164 17.1218 11.8164 17.6274Z" fill="#B28C8C"/>
</svg>
