<svg width="49" height="65" viewBox="0 0 49 65" fill="none" xmlns="http://www.w3.org/2000/svg">
<path d="M33.1257 2.03063V2.28063H33.3757H44.9736C46.8354 2.28063 48.3669 3.83982 48.3669 5.72814V60.9866C48.3669 62.8536 46.8363 64.4137 44.9736 64.4137H3.78394C1.9406 64.4137 0.390625 62.8527 0.390625 60.9866V5.72814C0.390625 3.84073 1.94149 2.28063 3.78394 2.28063H15.4425H15.6925V2.03063V1.35649C15.6925 1.10715 15.8145 0.834959 16.0217 0.621555C16.2282 0.408744 16.4957 0.278656 16.7582 0.278656H32.0196C32.2747 0.278656 32.5542 0.406115 32.7741 0.619285C32.994 0.832439 33.1257 1.10321 33.1257 1.35649V2.03063ZM36.7691 19.1036H36.769V19.1087C36.769 19.5176 36.5592 19.958 36.219 20.3014C35.8792 20.6444 35.4388 20.8606 35.0152 20.8606H22.7291C22.3164 20.8606 21.8757 20.645 21.5323 20.3008C21.1888 19.9564 20.9753 19.516 20.9753 19.1087C20.9753 18.6883 21.1862 18.2426 21.5259 17.8974C21.8655 17.5524 22.3057 17.3363 22.7291 17.3363H35.0152C35.4393 17.3363 35.8847 17.5529 36.2266 17.898C36.5688 18.2434 36.7775 18.687 36.7691 19.1036ZM36.7691 50.2567H36.769V50.2618C36.769 50.8583 36.5487 51.2896 36.2301 51.5742C35.9071 51.8628 35.4678 52.0137 35.0152 52.0137H22.7291C22.2875 52.0137 21.8476 51.8632 21.5212 51.5737C21.1995 51.2882 20.9753 50.8566 20.9753 50.2618C20.9753 49.8414 21.1862 49.3957 21.5259 49.0505C21.8655 48.7055 22.3057 48.4894 22.7291 48.4894H35.0152C35.4393 48.4894 35.8847 48.706 36.2266 49.0511C36.5688 49.3965 36.7775 49.8401 36.7691 50.2567ZM36.7691 39.8792L36.769 39.8792V39.8842C36.769 40.315 36.558 40.7548 36.2202 41.091C35.8824 41.4274 35.4419 41.6362 35.0152 41.6362H22.7291C22.3133 41.6362 21.8725 41.428 21.5311 41.0905C21.1901 40.7532 20.9753 40.3135 20.9753 39.8842C20.9753 39.4534 21.1864 39.0136 21.5241 38.6773C21.862 38.341 22.3024 38.1322 22.7291 38.1322H35.0152C35.4425 38.1322 35.8882 38.3415 36.2284 38.6779C36.5686 39.0143 36.7775 39.4521 36.7691 39.8792ZM36.7691 29.1543H36.769V29.1594C36.769 29.5683 36.5592 30.0087 36.219 30.3521C35.8792 30.6951 35.4388 30.9113 35.0152 30.9113H22.7291C22.3164 30.9113 21.8757 30.6957 21.5323 30.3515C21.1888 30.0071 20.9753 29.5667 20.9753 29.1594C20.9753 28.7285 21.1864 28.2888 21.5241 27.9525C21.862 27.6161 22.3024 27.4074 22.7291 27.4074H35.0152C35.4409 27.4074 35.8866 27.6204 36.2278 27.9602C36.5692 28.3001 36.7775 28.7382 36.7691 29.1543ZM3.87803 60.6393V60.8893H4.12803H44.3795H44.6295H44.6497V60.6393H44.8795V6.05499V5.80499H44.6295H33.3555H33.1055V6.05499V6.38184C33.1055 7.27853 32.4977 7.80696 31.9993 7.80696H16.7379C16.2283 7.80696 15.6723 7.30949 15.6723 6.38184V6.05499V5.80499H15.4223H4.12803H3.87803V6.05499V60.6393ZM14.7543 47.1615C16.6474 47.1615 18.1477 48.4236 18.1477 50.2822C18.1477 52.1474 16.6188 53.6888 14.7543 53.6888C14.0177 53.6888 13.2556 53.315 12.6727 52.6906C12.0916 52.0682 11.7051 51.2136 11.7051 50.2822C11.7051 48.39 13.24 47.1615 14.7543 47.1615ZM14.7543 16.0084C16.6474 16.0084 18.1477 17.2705 18.1477 19.1291C18.1477 20.9961 16.617 22.5562 14.7543 22.5562C14.0188 22.5562 13.2567 22.1782 12.6733 21.5485C12.0917 20.9208 11.7051 20.0607 11.7051 19.1291C11.7051 17.2369 13.24 16.0084 14.7543 16.0084ZM14.7543 36.8044C16.6506 36.8044 18.1477 38.049 18.1477 39.8842C18.1477 41.7512 16.617 43.3113 14.7543 43.3113C14.0188 43.3113 13.2567 42.9333 12.6733 42.3036C12.0917 41.6759 11.7051 40.8158 11.7051 39.8842C11.7051 38.0348 13.2379 36.8044 14.7543 36.8044ZM14.7543 26.0591C16.6463 26.0591 18.1477 27.3407 18.1477 29.1798C18.1477 31.0468 16.617 32.6069 14.7543 32.6069C14.0188 32.6069 13.2567 32.2289 12.6733 31.5992C12.0917 30.9715 11.7051 30.1114 11.7051 29.1798C11.7051 27.3264 13.2421 26.0591 14.7543 26.0591Z" fill="#B28C8C" stroke="white" stroke-width="0.5"/>
</svg>
