<svg width="18" height="18" viewBox="0 0 18 18" fill="none" xmlns="http://www.w3.org/2000/svg">
<path d="M16.0908 16.5L11.0908 11.5M12.7575 7.33333C12.7575 8.09938 12.6066 8.85792 12.3135 9.56565C12.0203 10.2734 11.5906 10.9164 11.0489 11.4581C10.5073 11.9998 9.86421 12.4295 9.15647 12.7226C8.44874 13.0158 7.6902 13.1667 6.92415 13.1667C6.15811 13.1667 5.39957 13.0158 4.69183 12.7226C3.9841 12.4295 3.34104 11.9998 2.79936 11.4581C2.25769 10.9164 1.82801 10.2734 1.53486 9.56565C1.2417 8.85792 1.09082 8.09938 1.09082 7.33333C1.09082 5.78624 1.7054 4.30251 2.79936 3.20854C3.89333 2.11458 5.37706 1.5 6.92415 1.5C8.47125 1.5 9.95498 2.11458 11.0489 3.20854C12.1429 4.30251 12.7575 5.78624 12.7575 7.33333Z" stroke="#DF2127" stroke-width="2" stroke-linecap="round" stroke-linejoin="round"/>
</svg>
