<svg width="22" height="22" viewBox="0 0 22 22" fill="none" xmlns="http://www.w3.org/2000/svg">
<path d="M0.421875 1.26001H4.08664L6.56035 13.537C6.74359 14.3615 7.47654 15.0029 8.39273 15.0029H17.2798C18.196 15.0029 18.9289 14.3615 19.1122 13.537L20.5781 5.84096H5.00283M7.7514 18.6676C8.30111 18.6676 8.66759 19.0341 8.66759 19.5838C8.66759 20.1335 8.30111 20.5 7.7514 20.5C7.20169 20.5 6.83521 20.1335 6.83521 19.5838C6.83521 19.0341 7.20169 18.6676 7.7514 18.6676ZM16.9133 19.5838C16.9133 20.1335 17.2798 20.5 17.8295 20.5C18.3792 20.5 18.7457 20.1335 18.7457 19.5838C18.7457 19.0341 18.3792 18.6676 17.8295 18.6676C17.2798 18.6676 16.9133 19.0341 16.9133 19.5838Z" stroke="white" stroke-width="1.81818"/>
</svg>
