<svg width="14" height="12" viewBox="0 0 14 12" fill="none" xmlns="http://www.w3.org/2000/svg">
<path d="M13 6.75012C13.4142 6.75012 13.75 6.41434 13.75 6.00012C13.75 5.58591 13.4142 5.25012 13 5.25012L13 6.75012ZM0.46967 5.46979C0.176777 5.76268 0.176777 6.23756 0.46967 6.53045L5.24264 11.3034C5.53553 11.5963 6.01041 11.5963 6.3033 11.3034C6.59619 11.0105 6.59619 10.5357 6.3033 10.2428L2.06066 6.00012L6.3033 1.75748C6.59619 1.46459 6.59619 0.989714 6.3033 0.696821C6.01041 0.403927 5.53553 0.403927 5.24264 0.696821L0.46967 5.46979ZM13 5.25012L6.36842 5.25012L6.36842 6.75012L13 6.75012L13 5.25012ZM6.36842 5.25012L1 5.25012L1 6.75012L6.36842 6.75012L6.36842 5.25012Z" fill="#2C2727"/>
</svg>
