<svg width="110" height="110" viewBox="0 0 110 110" fill="none" xmlns="http://www.w3.org/2000/svg">
<g clip-path="url(#clip0_303_3675)">
<circle cx="55.1958" cy="55.2488" r="54.6186" fill="url(#paint0_linear_303_3675)"/>
<path d="M74.2956 25.5149L36.1933 25.4745C32.9367 25.472 30.2947 28.0769 30.2922 31.2972L30.2386 80.8941L30.208 109.49C30.2055 112.592 32.6536 115.131 35.747 115.313C35.8618 115.32 35.9791 115.323 36.0964 115.326L60.0299 115.351L69.6619 115.361L74.1987 115.366C77.4553 115.368 80.0947 112.763 80.0998 109.543L80.1126 98.7453L80.1202 91.0743V90.0126L80.1304 80.7302L80.133 79.2197L80.1457 67.1987L80.184 31.3526C80.1865 28.1299 77.5496 25.5174 74.2956 25.5149Z" fill="#DF2127"/>
<path d="M36.8568 101.767L73.4724 101.804C75.6732 101.807 77.4583 100.349 77.4608 98.5515L77.5297 34.5757C77.5323 32.7752 75.7497 31.3151 73.5489 31.3126L36.9333 31.2723C34.7325 31.2697 32.9474 32.7273 32.9448 34.5253L32.876 98.501C32.876 100.304 34.6586 101.764 36.8568 101.767Z" fill="white"/>
<path opacity="0.25" d="M36.8568 101.746L73.4724 101.784C75.6732 101.787 77.4583 100.329 77.4608 98.5313L77.5297 34.5732C77.5323 32.7752 75.7497 31.3151 73.5489 31.3126L36.9333 31.2723C34.7325 31.2697 32.9474 32.7273 32.9448 34.5253L32.876 98.4834C32.876 100.284 34.6586 101.744 36.8568 101.746Z" fill="#F4F8FF"/>
<path d="M55.1946 111.46C53.1213 111.46 51.4331 109.79 51.4331 107.74C51.4331 105.69 53.1213 104.021 55.1946 104.021C57.2679 104.021 58.9561 105.69 58.9561 107.74C58.9561 109.79 57.2705 111.46 55.1946 111.46ZM55.1946 104.273C53.2616 104.273 51.6881 105.829 51.6881 107.74C51.6881 109.652 53.2616 111.208 55.1946 111.208C57.1277 111.208 58.7011 109.652 58.7011 107.74C58.7011 105.829 57.1277 104.273 55.1946 104.273Z" fill="white"/>
<path opacity="0.21" d="M55.1946 109.523C54.2 109.523 53.3916 108.724 53.3916 107.741C53.3916 106.757 54.2 105.958 55.1946 105.958C56.1892 105.958 56.9976 106.757 56.9976 107.741C57.0001 108.724 56.1892 109.523 55.1946 109.523ZM55.1946 106.21C54.3403 106.21 53.6466 106.896 53.6466 107.741C53.6466 108.585 54.3403 109.271 55.1946 109.271C56.0489 109.271 56.7425 108.585 56.7425 107.741C56.7451 106.896 56.0489 106.21 55.1946 106.21Z" fill="white"/>
<path d="M55.1949 29.9507C54.3406 29.9507 53.647 29.2648 53.647 28.42C53.647 27.5753 54.3406 26.8894 55.1949 26.8894C56.0492 26.8894 56.7429 27.5753 56.7429 28.42C56.7429 29.2648 56.0492 29.9507 55.1949 29.9507ZM55.1949 27.1415C54.4834 27.1415 53.902 27.714 53.902 28.42C53.902 29.1236 54.4809 29.6985 55.1949 29.6985C55.909 29.6985 56.4879 29.1261 56.4879 28.42C56.4879 27.7165 55.909 27.1415 55.1949 27.1415Z" fill="white"/>
<path opacity="0.21" d="M55.195 29.1942C54.764 29.1942 54.4121 28.8462 54.4121 28.4201C54.4121 27.9939 54.764 27.6459 55.195 27.6459C55.626 27.6459 55.9779 27.9939 55.9779 28.4201C55.9779 28.8462 55.626 29.1942 55.195 29.1942ZM55.195 27.8981C54.9043 27.8981 54.6671 28.1326 54.6671 28.4201C54.6671 28.7075 54.9043 28.942 55.195 28.942C55.4857 28.942 55.7229 28.7075 55.7229 28.4201C55.7229 28.1326 55.4857 27.8981 55.195 27.8981Z" fill="white"/>
<path opacity="0.42" d="M58.7855 95.548C59.0916 93.5866 57.7317 91.7512 55.7482 91.4486C53.7647 91.1459 51.9086 92.4906 51.6025 94.452C51.2965 96.4133 52.6563 98.2487 54.6398 98.5514C56.6234 98.854 58.4794 97.5093 58.7855 95.548Z" fill="white"/>
<path d="M56.2948 97.3291C57.5945 96.7272 58.1547 95.1975 57.546 93.9123C56.9374 92.6271 55.3903 92.0731 54.0906 92.675C52.7909 93.2769 52.2307 94.8066 52.8394 96.0918C53.4481 97.377 54.9951 97.931 56.2948 97.3291Z" fill="white"/>
<path d="M63.7615 95.0008C63.7615 95.6161 63.2565 96.1129 62.6368 96.1129C62.0146 96.1129 61.5122 95.6136 61.5122 95.0008C61.5122 94.3855 62.0171 93.8887 62.6368 93.8887C63.2591 93.8887 63.7615 94.3855 63.7615 95.0008Z" fill="white"/>
<path d="M69.6623 95.0008C69.6623 95.6161 69.1574 96.1129 68.5377 96.1129C67.9155 96.1129 67.4131 95.6136 67.4131 95.0008C67.4131 94.3855 67.918 93.8887 68.5377 93.8887C69.1574 93.8887 69.6623 94.3855 69.6623 95.0008Z" fill="white"/>
<path d="M42.2937 95.0008C42.2937 95.6161 41.7888 96.1129 41.1691 96.1129C40.5468 96.1129 40.0444 95.6136 40.0444 95.0008C40.0444 94.3855 40.5494 93.8887 41.1691 93.8887C41.7913 93.8887 42.2937 94.3855 42.2937 95.0008Z" fill="white"/>
<path d="M48.1946 95.0008C48.1946 95.6161 47.6896 96.1129 47.0699 96.1129C46.4477 96.1129 45.9453 95.6136 45.9453 95.0008C45.9453 94.3855 46.4502 93.8887 47.0699 93.8887C47.6922 93.8887 48.1946 94.3855 48.1946 95.0008Z" fill="white"/>
<path opacity="0.42" d="M57.3446 100.521H53.045C52.7977 100.521 52.5962 100.322 52.5962 100.078C52.5962 99.8329 52.7977 99.6337 53.045 99.6337H57.3446C57.592 99.6337 57.7935 99.8329 57.7935 100.078C57.796 100.322 57.592 100.521 57.3446 100.521Z" fill="white"/>
<path opacity="0.42" d="M68.0858 100.521H63.7862C63.5389 100.521 63.3374 100.322 63.3374 100.078C63.3374 99.8329 63.5389 99.6337 63.7862 99.6337H68.0858C68.3332 99.6337 68.5347 99.8329 68.5347 100.078C68.5372 100.322 68.3358 100.521 68.0858 100.521Z" fill="white"/>
<path opacity="0.42" d="M45.9433 100.521H41.6437C41.3963 100.521 41.1948 100.322 41.1948 100.078C41.1948 99.8329 41.3963 99.6337 41.6437 99.6337H45.9433C46.1906 99.6337 46.3921 99.8329 46.3921 100.078C46.3946 100.322 46.1932 100.521 45.9433 100.521Z" fill="white"/>
</g>
<defs>
<linearGradient id="paint0_linear_303_3675" x1="55.1958" y1="-37.3338" x2="55.1958" y2="109.867" gradientUnits="userSpaceOnUse">
<stop offset="0.193694" stop-color="#FF7373"/>
<stop offset="1" stop-color="#F5D173"/>
</linearGradient>
<clipPath id="clip0_303_3675">
<rect x="0.577148" y="0.630127" width="109.237" height="109.237" rx="54.6186" fill="white"/>
</clipPath>
</defs>
</svg>
