<svg width="14" height="12" viewBox="0 0 14 12" fill="none" xmlns="http://www.w3.org/2000/svg">
<path d="M1 6.75012C0.585786 6.75012 0.25 6.41434 0.25 6.00012C0.25 5.58591 0.585786 5.25012 1 5.25012L1 6.75012ZM13.5303 5.46979C13.8232 5.76268 13.8232 6.23756 13.5303 6.53045L8.75736 11.3034C8.46447 11.5963 7.98959 11.5963 7.6967 11.3034C7.40381 11.0105 7.40381 10.5357 7.6967 10.2428L11.9393 6.00012L7.6967 1.75748C7.40381 1.46459 7.40381 0.989714 7.6967 0.696821C7.98959 0.403927 8.46447 0.403927 8.75736 0.696821L13.5303 5.46979ZM1 5.25012L7.63158 5.25012L7.63158 6.75012L1 6.75012L1 5.25012ZM7.63158 5.25012L13 5.25012L13 6.75012L7.63158 6.75012L7.63158 5.25012Z" fill="white"/>
</svg>
