<svg width="46" height="44" viewBox="0 0 46 44" fill="none" xmlns="http://www.w3.org/2000/svg">
<g clip-path="url(#clip0_254_680)">
<path d="M0.417581 33.7398L0.418049 33.7397L0.415524 33.7281C-0.283277 30.5044 0.414362 27.2932 2.24879 24.5264C2.24893 24.5262 2.24907 24.526 2.24921 24.5258L15.0228 5.68003L15.0235 5.67891C17.3184 2.22687 21.1944 0.15 25.3363 0.15C27.6482 0.15 30.1772 0.825293 32.0005 2.22111L32.0003 2.22134L32.0082 2.2266C34.7511 4.06508 36.6122 6.82914 37.3124 10.0436C37.998 13.4975 37.3124 16.7089 35.4793 19.4737C35.4792 19.4739 35.4791 19.4741 35.4789 19.4742L22.663 38.3198L22.6617 38.3218C20.3955 41.7727 16.4918 43.85 12.3494 43.85C10.0405 43.85 7.50664 43.1477 5.46529 41.7736L5.46505 41.7734C2.72427 39.9363 0.850765 36.9489 0.417581 33.7398ZM19.179 28.5485L19.1789 28.5484L19.1765 28.5522L15.9215 33.6758C14.7739 35.2714 13.5256 35.947 12.5437 36.2271C11.6987 36.4682 11.0525 36.4186 10.8 36.3993C10.7755 36.3974 10.7547 36.3958 10.7378 36.3948C9.50816 35.9237 8.25521 36.675 7.99689 37.9022C7.75497 38.8932 8.22748 40.134 9.49027 40.6315L9.51677 40.6419L9.54277 40.6419C9.54277 40.642 9.54771 40.6424 9.56098 40.6443C9.57667 40.6465 9.59765 40.6498 9.62502 40.6542L9.64539 40.6575C9.69727 40.6659 9.76498 40.6769 9.84634 40.6888C10.0316 40.716 10.2882 40.7482 10.602 40.7683C11.2294 40.8087 12.0859 40.801 13.06 40.6089C15.0118 40.2239 17.4272 39.0996 19.4131 36.159C19.4132 36.159 19.4132 36.1589 19.4132 36.1588L22.8946 31.0355C23.6447 30.0533 23.4211 28.5507 22.4035 28.0169L22.4037 28.0166L22.3945 28.0126C22.3386 27.9878 22.2824 27.9625 22.2261 27.937C21.8137 27.7507 21.3906 27.5595 20.9318 27.5595C20.4512 27.5595 19.6927 27.7909 19.179 28.5485ZM33.6429 10.92L33.6421 10.9127L33.6406 10.9054C33.1941 8.76767 31.7578 6.64749 29.8426 5.45956C28.6612 4.48381 26.9986 4.0398 25.3504 4.0398C22.5305 4.0398 19.6899 5.46616 18.2565 7.82943L13.1526 15.2449C12.9116 15.5063 12.7952 15.8253 12.7379 16.1605C12.6809 16.4944 12.6809 16.8565 12.6809 17.2065V17.2137V17.2375L12.6883 17.2601C12.8024 17.6105 12.9171 17.914 13.0985 18.1907C13.2813 18.4695 13.5269 18.7139 13.8944 18.9573C13.8947 18.9575 13.895 18.9577 13.8953 18.9579L23.4104 25.4756L23.4103 25.4757L23.4162 25.4794C24.6163 26.2223 26.3865 25.986 27.106 24.7503L32.2137 17.3153C33.6461 15.3982 33.8714 13.0399 33.6429 10.92Z" fill="#DF2127" stroke="#FDFCFC" stroke-width="0.3"/>
</g>
<circle cx="32.1226" cy="30.7388" r="12.2613" fill="white" stroke="#DF2127" stroke-width="2"/>
<path d="M27.7784 30.4203C27.3879 30.0298 26.7547 30.0298 26.3642 30.4203C25.9737 30.8108 25.9737 31.444 26.3642 31.8345L27.7784 30.4203ZM37.8819 27.9486C38.2724 27.558 38.2724 26.9249 37.8819 26.5343C37.4914 26.1438 36.8582 26.1438 36.4677 26.5343L37.8819 27.9486ZM29.9081 33.9642L29.201 34.6713L29.9081 33.9642ZM30.452 33.9642L31.1591 34.6713L30.452 33.9642ZM26.3642 31.8345L29.201 34.6713L30.6152 33.2571L27.7784 30.4203L26.3642 31.8345ZM31.1591 34.6713L37.8819 27.9486L36.4677 26.5343L29.7449 33.2571L31.1591 34.6713ZM29.201 34.6713C29.7417 35.2121 30.6184 35.2121 31.1591 34.6713L29.7449 33.2571C29.9852 33.0168 30.3749 33.0168 30.6152 33.2571L29.201 34.6713Z" fill="#DF2127"/>
<defs>
<clipPath id="clip0_254_680">
<rect width="37.7143" height="44" fill="white"/>
</clipPath>
</defs>
</svg>
