<svg width="24" height="25" viewBox="0 0 24 25" fill="none" xmlns="http://www.w3.org/2000/svg">
<circle cx="12" cy="12.5" r="12" fill="#DF2127"/>
<path d="M5.37229 16.6708C5.52196 17.7796 6.16892 18.8109 7.11522 19.4452C7.82012 19.9197 8.694 20.1617 9.49063 20.1617C10.9197 20.1617 12.2668 19.4452 13.0489 18.2541L17.4183 11.8289C18.0508 10.8751 18.2874 9.76633 18.0508 8.57524C17.8094 7.46646 17.1673 6.51261 16.221 5.87833C15.5885 5.39415 14.7146 5.16174 13.918 5.16174C12.4889 5.16174 11.1515 5.87833 10.3597 7.06943L6.00476 13.4945C5.37229 14.4484 5.13088 15.5572 5.37229 16.6708ZM8.93057 17.6198C9.00782 17.6198 9.95412 17.7796 10.7508 16.6708L11.8612 14.9229C12.0254 14.6808 12.2668 14.6082 12.4164 14.6082C12.5806 14.6082 12.7303 14.6856 12.8944 14.7583C13.2082 14.9229 13.2855 15.3974 13.0441 15.7121L11.8564 17.46C10.519 19.4403 8.61192 18.9658 8.53467 18.9658C8.12911 18.806 7.97944 18.409 8.05669 18.0943C8.13877 17.7021 8.5395 17.4648 8.93057 17.6198ZM11.5474 7.85864C12.0254 7.06943 12.9765 6.59008 13.9228 6.59008C14.478 6.59008 15.0333 6.74018 15.4243 7.06458C16.0665 7.46161 16.5493 8.17336 16.6989 8.88995C16.7762 9.60655 16.6989 10.3958 16.221 11.0349L14.478 13.572C14.2511 13.9642 13.6814 14.0465 13.2903 13.8044L10.0459 11.582C9.80445 11.4222 9.73203 11.2673 9.65478 11.03C9.65478 10.788 9.65478 10.5507 9.80445 10.3909L11.5474 7.85864Z" fill="white"/>
</svg>
