<svg width="108" height="45" viewBox="0 0 108 45" fill="none" xmlns="http://www.w3.org/2000/svg">
<path d="M73.437 44.6188H46.6407C46.4067 44.6188 46.1742 44.4785 45.9924 44.2097C45.8113 43.9419 45.6936 43.562 45.6936 43.1332C45.6936 42.7054 45.8113 42.3254 45.9924 42.0573C46.1743 41.7882 46.4069 41.6477 46.6407 41.6477H73.437C73.671 41.6477 73.9035 41.7879 74.0853 42.0567C74.2664 42.3245 74.3842 42.7045 74.3842 43.1332C74.3842 43.5611 74.2664 43.9411 74.0853 44.2091C73.9034 44.4782 73.6709 44.6188 73.437 44.6188Z" fill="#DF2127" stroke="#FDFCFC" stroke-width="0.35"/>
<path d="M97.0474 24.7743C97.026 24.8092 97.0113 24.8242 97.0043 24.83H85.1451C85.1382 24.8242 85.1234 24.8093 85.1021 24.7744C85.0601 24.7057 85.016 24.5945 84.9766 24.4417C84.8983 24.1386 84.8479 23.7103 84.8479 23.23C84.8479 22.7507 84.8983 22.3224 84.9766 22.019C85.0161 21.8661 85.0602 21.7547 85.1022 21.6858C85.1235 21.6508 85.1383 21.6359 85.1452 21.6301H97.0044C97.0113 21.6358 97.0261 21.6507 97.0474 21.6856C97.0894 21.7544 97.1335 21.8655 97.173 22.0184C97.2513 22.3214 97.3017 22.7498 97.3017 23.23C97.3017 23.7093 97.2513 24.1377 97.173 24.441C97.1335 24.594 97.0894 24.7054 97.0474 24.7743Z" fill="#DF2127" stroke="#FDFCFC" stroke-width="0.35"/>
<path d="M81.0752 10.7902H62.685C62.6433 10.7902 62.5878 10.7707 62.5205 10.7027C62.4526 10.6341 62.3834 10.5259 62.3215 10.3781C62.198 10.0831 62.1174 9.66341 62.1174 9.19024C62.1174 8.71706 62.198 8.29733 62.3215 8.0024C62.3834 7.85457 62.4526 7.74635 62.5205 7.67775C62.5878 7.60977 62.6433 7.59028 62.685 7.59028H81.076C81.1178 7.59028 81.1733 7.60977 81.2405 7.67775C81.3085 7.74635 81.3777 7.85457 81.4396 8.0024C81.5631 8.29733 81.6437 8.71706 81.6437 9.19024C81.6437 9.66341 81.5631 10.0831 81.4395 10.378C81.3776 10.5258 81.3083 10.634 81.2403 10.7026C81.173 10.7706 81.1173 10.7902 81.0752 10.7902Z" fill="#DF2127" stroke="#FDFCFC" stroke-width="0.35"/>
<path d="M59.6102 16.0166H63.975L63.7095 17.3911H60.947L60.605 19.1574H63.202L62.9365 20.5208H60.3504L59.7866 23.5511H58.1953L59.6102 16.0166Z" fill="#DF2127"/>
<path d="M65.2451 16.1618C65.7418 16.0386 66.4945 15.9612 67.2347 15.9612C67.9421 15.9612 68.6714 16.0734 69.1899 16.3972C69.6756 16.6879 70.0191 17.1682 70.0191 17.8728C70.0191 18.9914 69.2789 19.6834 68.3279 19.9962V20.0404C68.7698 20.23 68.9572 20.734 69.0353 21.4149C69.1243 22.2539 69.1899 23.2365 69.3226 23.5494H67.6876C67.622 23.3487 67.5439 22.6994 67.4674 21.772C67.4018 20.8557 67.091 20.576 66.4617 20.576H65.976L65.4232 23.5494H63.8428L65.2451 16.1618ZM66.2071 19.3706H66.8708C67.7329 19.3706 68.3622 18.8445 68.3622 18.1067C68.3622 17.5031 67.8547 17.2346 67.2238 17.2346C66.9255 17.2346 66.7381 17.2567 66.6053 17.2899L66.2071 19.3706Z" fill="#DF2127"/>
<path d="M75.1238 20.355H72.4721L72.1301 22.1766H75.1019L74.8473 23.5511H70.2842L71.699 16.0166H76.1076L75.8421 17.3911H73.0358L72.7266 19.001H75.3783L75.1238 20.355Z" fill="#DF2127"/>
<path d="M80.8347 20.355H78.183L77.841 22.1766H80.8128L80.5583 23.5511H75.9951L77.41 16.0166H81.8185L81.5531 17.3911H78.7468L78.4376 19.001H81.0893L80.8347 20.355Z" fill="#DF2127"/>
<path d="M57.6202 35.0042C58.0982 35.2941 58.7805 35.5241 59.5219 35.5241C60.1913 35.5241 60.8016 35.2096 60.8016 34.5687C60.8016 34.1086 60.4547 33.8057 59.7133 33.4196C58.8524 32.9478 58.0391 32.3186 58.0391 31.2527C58.0391 29.6071 59.4628 28.6023 61.2218 28.6023C62.2021 28.6023 62.7765 28.8207 63.1234 29.0144L62.585 30.4663C62.3216 30.3207 61.7473 30.0907 61.0779 30.1037C60.2761 30.1037 59.8572 30.5157 59.8572 30.9629C59.8572 31.4347 60.348 31.7259 61.029 32.112C62.0094 32.6319 62.6326 33.2974 62.6326 34.2659C62.6326 36.0805 61.1498 37.0125 59.3548 37.0125C58.2306 37.0125 57.4288 36.7226 57.0459 36.4314L57.6202 35.0042Z" fill="#2C2727"/>
<path d="M66.6286 28.7368L66.0312 31.9189H68.962L69.5607 28.7368H71.2838L69.7522 36.8935H68.0292L68.6626 33.4684H65.7433L65.097 36.8935H63.374L64.9056 28.7368H66.6286Z" fill="#2C2727"/>
<path d="M74.5593 28.7368L73.0277 36.8935H71.3047L72.8363 28.7368H74.5593Z" fill="#2C2727"/>
<path d="M76.1135 28.8937C76.6274 28.7611 77.4407 28.6753 78.2194 28.6753C78.9376 28.6753 79.7741 28.7962 80.3613 29.2199C80.8996 29.5956 81.235 30.1636 81.235 30.9501C81.235 31.9783 80.7686 32.753 80.1339 33.2496C79.476 33.7695 78.5432 33.9996 77.5615 33.9996C77.275 33.9996 77.0347 33.9749 76.8561 33.9515L76.3062 36.8918H74.6191L76.1135 28.8937ZM77.1195 32.5359C77.2994 32.5723 77.4909 32.597 77.7774 32.597C78.8181 32.597 79.5004 31.9198 79.5004 31.1087C79.5004 30.3222 78.9376 30.0675 78.2682 30.0675C77.9457 30.0675 77.7183 30.0922 77.5744 30.1286L77.1195 32.5359Z" fill="#2C2727"/>
<path d="M82.8608 28.8937C83.3748 28.7611 84.1881 28.6753 84.9668 28.6753C85.685 28.6753 86.5215 28.7962 87.1074 29.2199C87.6457 29.5956 87.9811 30.1636 87.9811 30.9501C87.9811 31.9783 87.5147 32.753 86.88 33.2496C86.2221 33.7695 85.2893 33.9996 84.3076 33.9996C84.0211 33.9996 83.7808 33.9749 83.6022 33.9515L83.0523 36.8918H81.3652L82.8608 28.8937ZM83.8669 32.5359C84.0468 32.5723 84.2382 32.597 84.5248 32.597C85.5655 32.597 86.2478 31.9198 86.2478 31.1087C86.2478 30.3222 85.685 30.0675 85.0156 30.0675C84.6931 30.0675 84.4657 30.0922 84.3218 30.1286L83.8669 32.5359Z" fill="#2C2727"/>
<path d="M91.3308 28.7368L89.7992 36.8935H88.0762L89.6077 28.7368H91.3308Z" fill="#2C2727"/>
<path d="M91.3906 36.8935L92.9222 28.7368H94.9433L96.0085 31.8474C96.331 32.8886 96.5469 33.7348 96.7383 34.6305H96.7743C96.8103 33.7959 96.9182 32.9003 97.1456 31.7018L97.6955 28.7368H99.2991L97.7803 36.8935H95.9982L94.8739 33.6386C94.5155 32.5377 94.2996 31.7993 94.085 30.7945L94.049 30.8062C93.9527 31.5926 93.7625 32.7547 93.5222 34.0377L92.9954 36.8935H91.3906Z" fill="#2C2727"/>
<path d="M106.021 36.5173C105.399 36.7227 104.43 36.9775 103.412 36.9775C102.3 36.9775 101.391 36.6876 100.72 36.0819C100.074 35.5008 99.7041 34.6052 99.7041 33.5653C99.7041 32.0406 100.326 30.7212 101.355 29.8386C102.265 29.0755 103.509 28.6531 104.908 28.6531C105.96 28.6531 106.738 28.8585 107.048 29.0157L106.535 30.4924C106.163 30.3234 105.541 30.1531 104.824 30.1531C104.023 30.1531 103.306 30.3832 102.767 30.807C102.073 31.3633 101.607 32.3317 101.607 33.4457C101.607 34.8132 102.409 35.5034 103.677 35.5034C104.071 35.5034 104.359 35.4423 104.551 35.3578L104.873 33.6394H103.629L103.893 32.2472H106.824L106.021 36.5173Z" fill="#2C2727"/>
<path d="M36.147 12.9073H36.0542H25.4683H25.367L25.3165 12.8194L18.9582 1.74725L18.9581 1.7472C18.695 1.28869 18.2122 1.00825 17.6911 1.00825H2.5326C2.0084 1.00825 1.5241 1.29178 1.26256 1.75166C1.00066 2.21387 1.00094 2.78042 1.26547 3.24029L1.26553 3.2404L7.87539 14.7509L7.89863 14.7914V14.8381V43.1727C7.89863 43.9942 8.55794 44.6583 9.36505 44.6583H24.5235H52.0776C52.8848 44.6583 53.544 43.9958 53.544 43.1727V14.9069V14.8531L53.5742 14.8087L61.3512 3.33626L36.147 12.9073ZM36.147 12.9073L36.1991 12.8305L43.7741 1.65342L43.7742 1.6533M36.147 12.9073L43.7742 1.6533M43.7742 1.6533C44.0477 1.24901 44.5016 1.00825 44.9835 1.00825H60.142C60.6841 1.00825 61.1838 1.3132 61.4379 1.80109M43.7742 1.6533L61.4379 1.80109M61.4379 1.80109C61.692 2.28903 61.6585 2.88039 61.3514 3.33593L61.4379 1.80109ZM16.8981 4.06723L16.8476 3.9794H16.7463H5.38384H5.08151L5.23209 4.24156L10.158 12.8177L10.2085 12.9056H10.3098H21.6723H21.9746L21.824 12.6434L16.8981 4.06723ZM26.165 15.8767H25.99V16.0517V41.5121V41.6871H26.165H50.4362H50.6112V41.5121V16.0517V15.8767H50.4362H36.9191H26.165ZM22.8821 41.6888H23.0571V41.5138V16.0517V15.8767H22.8821H11.0065H10.8315V16.0517V41.5138V41.6888H11.0065H22.8821ZM51.2127 12.9056H51.3055L51.3576 12.8288L57.1705 4.25258L57.3557 3.9794H57.0257H45.8484H45.7556L45.7035 4.05621L39.8906 12.6324L39.7054 12.9056H40.0355H51.2127Z" fill="#DF2127" stroke="#FDFCFC" stroke-width="0.35"/>
</svg>
